<svg id="svg" version="1.1" xmlns="http://www.w3.org/2000/svg" xmlns:xlink="http://www.w3.org/1999/xlink" width="400" height="400" viewBox="0, 0, 400,400"><g id="svgg"><path id="path0" d="M20.800 169.067 L 20.800 195.733 50.933 195.733 L 81.067 195.733 81.067 191.467 L 81.067 187.200 79.733 187.200 C 78.809 187.200,78.420 187.098,78.467 186.867 C 78.510 186.651,78.132 186.504,77.400 186.451 C 76.777 186.406,76.267 186.256,76.267 186.118 C 76.267 185.980,76.023 185.867,75.725 185.867 C 75.427 185.867,75.114 185.687,75.030 185.467 C 74.945 185.247,74.703 185.067,74.492 185.067 C 74.281 185.067,73.830 184.767,73.490 184.400 C 73.150 184.033,72.736 183.733,72.569 183.733 C 72.403 183.733,72.267 183.605,72.267 183.448 C 72.267 183.078,71.588 182.400,71.219 182.400 C 71.062 182.400,70.933 182.113,70.933 181.762 C 70.933 181.411,70.753 181.055,70.533 180.970 C 70.313 180.886,70.133 180.513,70.133 180.142 C 70.133 179.770,70.028 179.467,69.899 179.467 C 69.770 179.467,69.610 178.724,69.545 177.815 C 69.478 176.888,69.288 176.118,69.113 176.060 C 68.758 175.942,68.646 162.401,69.000 162.398 C 69.110 162.397,85.430 162.367,105.267 162.331 L 141.333 162.267 141.333 170.486 C 141.333 177.436,141.272 178.767,140.933 179.105 C 140.713 179.325,140.533 179.722,140.533 179.989 C 140.533 180.629,139.861 181.906,139.640 181.685 C 139.545 181.589,139.467 181.694,139.467 181.918 C 139.467 182.399,137.936 184.083,137.267 184.338 C 137.010 184.436,136.800 184.640,136.800 184.792 C 136.800 184.943,136.573 185.067,136.295 185.067 C 136.018 185.067,135.721 185.247,135.637 185.467 C 135.552 185.687,135.240 185.867,134.942 185.867 C 134.644 185.867,134.400 185.980,134.400 186.118 C 134.400 186.256,133.890 186.406,133.267 186.451 C 132.535 186.504,132.157 186.651,132.200 186.867 C 132.246 187.098,131.858 187.200,130.933 187.200 L 129.600 187.200 129.600 191.467 L 129.600 195.733 152.933 195.733 L 176.267 195.733 176.267 191.467 L 176.267 187.200 174.933 187.200 C 174.009 187.200,173.620 187.098,173.667 186.867 C 173.710 186.651,173.332 186.504,172.600 186.451 C 171.977 186.406,171.467 186.256,171.467 186.118 C 171.467 185.980,171.223 185.867,170.925 185.867 C 170.627 185.867,170.314 185.687,170.230 185.467 C 170.145 185.247,169.903 185.067,169.692 185.067 C 169.481 185.067,169.030 184.767,168.690 184.400 C 168.350 184.033,167.936 183.733,167.769 183.733 C 167.603 183.733,167.467 183.553,167.467 183.333 C 167.467 183.113,167.331 182.933,167.165 182.933 C 166.718 182.933,165.829 181.816,165.974 181.438 C 166.043 181.258,165.927 181.045,165.716 180.964 C 165.506 180.883,165.331 180.543,165.329 180.208 C 165.325 179.570,164.844 178.607,164.759 179.067 C 164.603 179.913,164.220 173.959,164.105 168.911 C 163.995 164.035,164.037 162.968,164.350 162.708 C 164.897 162.254,236.170 162.254,236.716 162.708 C 237.029 162.968,237.071 164.035,236.961 168.911 C 236.847 173.959,236.464 179.913,236.308 179.067 C 236.223 178.607,235.742 179.570,235.737 180.208 C 235.735 180.543,235.561 180.883,235.350 180.964 C 235.139 181.045,235.032 181.281,235.112 181.489 C 235.192 181.697,235.104 181.867,234.917 181.867 C 234.731 181.867,234.652 181.941,234.743 182.032 C 234.945 182.234,234.280 182.933,233.886 182.933 C 233.729 182.933,233.600 183.113,233.600 183.333 C 233.600 183.553,233.464 183.733,233.297 183.733 C 233.131 183.733,232.716 184.033,232.377 184.400 C 232.037 184.767,231.586 185.067,231.375 185.067 C 231.163 185.067,230.921 185.247,230.837 185.467 C 230.752 185.687,230.440 185.867,230.142 185.867 C 229.844 185.867,229.600 185.980,229.600 186.118 C 229.600 186.256,229.090 186.406,228.467 186.451 C 227.735 186.504,227.357 186.651,227.400 186.867 C 227.446 187.098,227.058 187.200,226.133 187.200 L 224.800 187.200 224.800 191.467 L 224.800 195.733 248.133 195.733 L 271.467 195.733 271.467 191.467 L 271.467 187.200 270.133 187.200 C 269.209 187.200,268.820 187.098,268.867 186.867 C 268.910 186.651,268.532 186.504,267.800 186.451 C 267.177 186.406,266.667 186.256,266.667 186.118 C 266.667 185.980,266.423 185.867,266.125 185.867 C 265.827 185.867,265.514 185.687,265.430 185.467 C 265.345 185.247,264.982 185.067,264.622 185.067 C 264.251 185.067,264.040 184.951,264.134 184.798 C 264.226 184.650,264.083 184.446,263.817 184.345 C 263.398 184.185,262.332 183.152,261.467 182.068 C 261.065 181.564,260.594 180.489,260.416 179.667 C 260.328 179.263,260.139 178.933,259.995 178.933 C 259.829 178.933,259.733 175.870,259.733 170.600 L 259.733 162.267 295.800 162.331 C 315.637 162.367,331.957 162.397,332.067 162.398 C 332.420 162.401,332.309 175.942,331.954 176.060 C 331.779 176.118,331.589 176.888,331.522 177.815 C 331.456 178.724,331.297 179.467,331.168 179.467 C 331.039 179.467,330.933 179.770,330.933 180.142 C 330.933 180.513,330.753 180.886,330.533 180.970 C 330.313 181.055,330.133 181.411,330.133 181.762 C 330.133 182.113,330.005 182.400,329.848 182.400 C 329.478 182.400,328.800 183.078,328.800 183.448 C 328.800 183.605,328.664 183.733,328.497 183.733 C 328.331 183.733,327.916 184.033,327.577 184.400 C 327.237 184.767,326.786 185.067,326.575 185.067 C 326.363 185.067,326.121 185.247,326.037 185.467 C 325.952 185.687,325.640 185.867,325.342 185.867 C 325.044 185.867,324.800 185.980,324.800 186.118 C 324.800 186.256,324.290 186.406,323.667 186.451 C 322.935 186.504,322.557 186.651,322.600 186.867 C 322.646 187.098,322.258 187.200,321.333 187.200 L 320.000 187.200 320.000 191.467 L 320.000 195.733 349.067 195.733 L 378.133 195.733 378.133 169.067 L 378.133 142.400 366.683 142.400 L 355.233 142.400 355.053 143.600 C 354.954 144.260,354.774 144.800,354.654 144.800 C 354.534 144.800,354.353 145.061,354.252 145.380 C 354.151 145.698,353.847 146.196,353.577 146.487 C 353.306 146.777,353.148 147.116,353.225 147.240 C 353.302 147.365,353.221 147.467,353.046 147.467 C 352.871 147.467,352.450 147.767,352.110 148.133 C 351.770 148.500,351.384 148.800,351.252 148.800 C 351.119 148.800,350.697 149.091,350.313 149.447 C 349.929 149.803,349.341 150.136,349.007 150.187 C 348.673 150.238,348.430 150.426,348.467 150.606 C 348.512 150.830,348.111 150.933,347.200 150.933 C 346.467 150.933,345.867 151.053,345.867 151.200 C 345.867 151.377,297.244 151.467,200.533 151.467 C 103.822 151.467,55.200 151.377,55.200 151.200 C 55.200 151.053,54.600 150.933,53.867 150.933 C 52.955 150.933,52.554 150.830,52.600 150.606 C 52.637 150.426,52.393 150.238,52.059 150.187 C 51.725 150.136,51.138 149.803,50.754 149.447 C 50.370 149.091,49.826 148.800,49.545 148.800 C 49.265 148.800,49.096 148.701,49.171 148.581 C 49.325 148.331,48.403 147.467,47.981 147.467 C 47.828 147.467,47.765 147.365,47.842 147.240 C 47.919 147.116,47.760 146.777,47.490 146.487 C 47.220 146.196,46.916 145.698,46.815 145.380 C 46.713 145.061,46.532 144.800,46.412 144.800 C 46.292 144.800,46.113 144.260,46.014 143.600 L 45.834 142.400 33.317 142.400 L 20.800 142.400 20.800 169.067 " stroke="none" fill="#e4cd74" fill-rule="evenodd"></path><path id="path1" d="M20.800 228.800 L 20.800 255.467 50.933 255.467 L 81.067 255.467 81.067 228.800 L 81.067 202.133 50.933 202.133 L 20.800 202.133 20.800 228.800 M129.600 228.800 L 129.600 255.467 152.933 255.467 L 176.267 255.467 176.267 228.800 L 176.267 202.133 152.933 202.133 L 129.600 202.133 129.600 228.800 M224.800 228.800 L 224.800 255.467 248.133 255.467 L 271.467 255.467 271.467 228.800 L 271.467 202.133 248.133 202.133 L 224.800 202.133 224.800 228.800 M320.000 228.800 L 320.000 255.467 349.067 255.467 L 378.133 255.467 378.133 228.800 L 378.133 202.133 349.067 202.133 L 320.000 202.133 320.000 228.800 " stroke="none" fill="#73e393" fill-rule="evenodd"></path><path id="path2" d="M20.800 289.333 L 20.800 316.000 33.333 316.000 L 45.867 316.000 45.867 314.837 C 45.867 313.133,46.172 311.192,46.416 311.343 C 46.533 311.415,46.705 311.233,46.799 310.937 C 46.893 310.642,47.081 310.400,47.218 310.400 C 47.355 310.400,47.467 310.216,47.467 309.991 C 47.467 309.766,47.827 309.230,48.267 308.800 C 48.707 308.370,49.067 307.894,49.067 307.742 C 49.067 307.591,49.307 307.467,49.600 307.467 C 49.893 307.467,50.133 307.347,50.133 307.200 C 50.133 307.053,50.317 306.933,50.542 306.933 C 50.766 306.933,51.019 306.753,51.104 306.533 C 51.188 306.313,51.544 306.133,51.895 306.133 C 52.246 306.133,52.533 306.013,52.533 305.867 C 52.533 305.720,52.945 305.600,53.448 305.600 C 53.950 305.600,54.542 305.420,54.762 305.200 C 55.116 304.845,71.670 304.800,200.533 304.800 C 329.397 304.800,345.950 304.845,346.305 305.200 C 346.525 305.420,347.116 305.600,347.619 305.600 C 348.122 305.600,348.533 305.720,348.533 305.867 C 348.533 306.013,348.820 306.133,349.171 306.133 C 349.522 306.133,349.879 306.313,349.963 306.533 C 350.048 306.753,350.300 306.933,350.525 306.933 C 350.750 306.933,350.933 307.053,350.933 307.200 C 350.933 307.347,351.173 307.467,351.467 307.467 C 351.760 307.467,351.970 307.561,351.933 307.675 C 351.897 307.790,352.257 308.266,352.733 308.733 C 353.210 309.200,353.600 309.766,353.600 309.991 C 353.600 310.216,353.712 310.400,353.849 310.400 C 353.985 310.400,354.174 310.642,354.268 310.937 C 354.362 311.233,354.534 311.415,354.650 311.343 C 354.895 311.192,355.200 313.133,355.200 314.837 L 355.200 316.000 366.667 316.000 L 378.133 316.000 378.133 289.333 L 378.133 262.667 349.067 262.667 L 320.000 262.667 320.000 278.267 L 320.000 293.867 295.733 293.867 L 271.467 293.867 271.467 278.267 L 271.467 262.667 248.133 262.667 L 224.800 262.667 224.800 278.267 L 224.800 293.867 200.533 293.867 L 176.267 293.867 176.267 278.267 L 176.267 262.667 152.933 262.667 L 129.600 262.667 129.600 278.267 L 129.600 293.867 105.333 293.867 L 81.067 293.867 81.067 278.267 L 81.067 262.667 50.933 262.667 L 20.800 262.667 20.800 289.333 " stroke="none" fill="#7393e3" fill-rule="evenodd"></path><path id="path3" d="M20.860 343.267 C 20.937 362.961,20.949 363.361,21.503 364.813 C 23.867 371.009,28.247 374.863,34.236 376.016 C 36.006 376.357,362.921 376.358,364.692 376.017 C 370.686 374.863,375.065 371.011,377.430 364.813 C 377.984 363.361,377.996 362.961,378.074 343.267 L 378.153 323.200 366.676 323.200 L 355.200 323.200 355.197 334.200 C 355.194 345.653,355.111 347.200,354.498 347.200 C 354.287 347.200,354.133 347.480,354.133 347.867 C 354.133 348.281,353.982 348.533,353.733 348.533 C 353.513 348.533,353.333 348.661,353.333 348.818 C 353.333 348.974,352.883 349.530,352.333 350.052 C 351.783 350.574,351.363 351.106,351.400 351.234 C 351.437 351.362,351.227 351.467,350.933 351.467 C 350.640 351.467,350.400 351.578,350.400 351.715 C 350.400 351.851,350.155 352.001,349.856 352.048 C 349.557 352.095,349.340 352.253,349.374 352.400 C 349.509 352.978,343.165 353.004,200.533 353.004 C 57.893 353.004,51.492 352.978,51.748 352.400 C 51.813 352.253,51.597 352.095,51.267 352.048 C 50.937 352.001,50.667 351.851,50.667 351.715 C 50.667 351.578,50.427 351.467,50.133 351.467 C 49.840 351.467,49.630 351.362,49.667 351.234 C 49.703 351.106,49.283 350.574,48.733 350.052 C 48.183 349.530,47.733 348.974,47.733 348.818 C 47.733 348.661,47.553 348.533,47.333 348.533 C 47.084 348.533,46.933 348.281,46.933 347.867 C 46.933 347.480,46.780 347.200,46.568 347.200 C 45.956 347.200,45.873 345.653,45.870 334.200 L 45.867 323.200 33.324 323.200 L 20.781 323.200 20.860 343.267 " stroke="none" fill="#d373e3" fill-rule="evenodd"></path><path id="path4" d="M42.667 23.739 C 34.520 23.884,33.603 23.946,32.254 24.449 C 26.794 26.485,23.610 29.666,21.503 35.187 C 20.949 36.639,20.937 37.039,20.860 56.733 L 20.781 76.800 77.190 76.800 C 114.619 76.800,133.600 76.710,133.600 76.533 C 133.600 76.387,133.900 76.267,134.267 76.267 C 134.681 76.267,134.933 76.116,134.933 75.867 C 134.933 75.644,135.171 75.467,135.470 75.467 C 135.766 75.467,136.216 75.355,136.470 75.219 C 136.725 75.084,137.151 74.904,137.417 74.821 C 137.683 74.738,137.826 74.550,137.734 74.402 C 137.637 74.244,137.905 74.133,138.384 74.133 C 138.833 74.133,139.200 74.026,139.200 73.896 C 139.200 73.765,139.500 73.583,139.867 73.490 C 140.233 73.398,140.533 73.205,140.533 73.062 C 140.533 72.918,140.833 72.800,141.200 72.800 C 141.567 72.800,141.867 72.693,141.867 72.562 C 141.867 72.431,142.167 72.249,142.533 72.157 C 142.900 72.065,143.200 71.872,143.200 71.728 C 143.200 71.584,143.500 71.467,143.867 71.467 C 144.281 71.467,144.533 71.316,144.533 71.067 C 144.533 70.818,144.785 70.667,145.200 70.667 C 145.567 70.667,145.867 70.555,145.867 70.418 C 145.867 70.281,146.197 70.131,146.600 70.084 C 147.012 70.037,147.304 69.854,147.267 69.667 C 147.225 69.459,147.502 69.333,148.000 69.333 C 148.440 69.333,148.800 69.213,148.800 69.067 C 148.800 68.920,149.044 68.800,149.342 68.800 C 149.640 68.800,149.952 68.620,150.037 68.400 C 150.121 68.180,150.478 68.000,150.829 68.000 C 151.180 68.000,151.467 67.893,151.467 67.762 C 151.467 67.631,151.767 67.449,152.133 67.357 C 152.500 67.265,152.800 67.072,152.800 66.928 C 152.800 66.784,153.100 66.667,153.467 66.667 C 153.881 66.667,154.133 66.516,154.133 66.267 C 154.133 66.018,154.385 65.867,154.800 65.867 C 155.167 65.867,155.467 65.755,155.467 65.618 C 155.467 65.481,155.797 65.331,156.200 65.284 C 156.612 65.237,156.904 65.054,156.867 64.867 C 156.825 64.659,157.102 64.533,157.600 64.533 C 158.040 64.533,158.400 64.422,158.400 64.285 C 158.400 64.149,158.670 63.996,159.000 63.946 C 159.330 63.895,159.570 63.707,159.533 63.527 C 159.492 63.327,159.776 63.200,160.267 63.200 C 160.707 63.200,161.067 63.093,161.067 62.962 C 161.067 62.831,161.367 62.649,161.733 62.557 C 162.100 62.465,162.400 62.272,162.400 62.128 C 162.400 61.984,162.700 61.867,163.067 61.867 C 163.481 61.867,163.733 61.716,163.733 61.467 C 163.733 61.218,163.985 61.067,164.400 61.067 C 164.767 61.067,165.067 60.955,165.067 60.818 C 165.067 60.681,165.397 60.531,165.800 60.484 C 166.212 60.437,166.504 60.254,166.467 60.067 C 166.430 59.883,166.642 59.733,166.937 59.733 C 167.232 59.733,167.682 59.622,167.937 59.486 C 168.192 59.350,168.618 59.171,168.884 59.088 C 169.150 59.005,169.292 58.816,169.201 58.669 C 169.104 58.511,169.371 58.400,169.851 58.400 C 170.300 58.400,170.667 58.293,170.667 58.162 C 170.667 58.031,170.967 57.849,171.333 57.757 C 171.700 57.665,172.000 57.472,172.000 57.328 C 172.000 57.184,172.287 57.067,172.638 57.067 C 172.989 57.067,173.345 56.887,173.430 56.667 C 173.514 56.447,173.827 56.267,174.125 56.267 C 174.423 56.267,174.667 56.147,174.667 56.000 C 174.667 55.853,174.967 55.733,175.333 55.733 C 175.748 55.733,176.000 55.582,176.000 55.333 C 176.000 55.084,176.252 54.933,176.667 54.933 C 177.033 54.933,177.333 54.821,177.333 54.684 C 177.333 54.547,177.663 54.397,178.067 54.351 C 178.479 54.304,178.771 54.121,178.733 53.933 C 178.692 53.726,178.969 53.600,179.467 53.600 C 179.907 53.600,180.267 53.493,180.267 53.362 C 180.267 53.231,180.567 53.049,180.933 52.957 C 181.300 52.865,181.600 52.672,181.600 52.528 C 181.600 52.384,181.900 52.267,182.267 52.267 C 182.633 52.267,182.933 52.160,182.933 52.029 C 182.933 51.898,183.233 51.716,183.600 51.624 C 183.967 51.532,184.267 51.339,184.267 51.195 C 184.267 51.051,184.567 50.933,184.933 50.933 C 185.348 50.933,185.600 50.782,185.600 50.533 C 185.600 50.284,185.852 50.133,186.267 50.133 C 186.633 50.133,186.933 50.021,186.933 49.884 C 186.933 49.747,187.263 49.597,187.667 49.551 C 188.079 49.504,188.371 49.321,188.333 49.133 C 188.292 48.926,188.569 48.800,189.067 48.800 C 189.507 48.800,189.867 48.680,189.867 48.533 C 189.867 48.387,190.110 48.267,190.408 48.267 C 190.706 48.267,191.019 48.087,191.104 47.867 C 191.188 47.647,191.544 47.467,191.895 47.467 C 192.246 47.467,192.533 47.360,192.533 47.229 C 192.533 47.098,192.833 46.916,193.200 46.824 C 193.567 46.732,193.867 46.539,193.867 46.395 C 193.867 46.251,194.167 46.133,194.533 46.133 C 194.948 46.133,195.200 45.982,195.200 45.733 C 195.200 45.484,195.452 45.333,195.867 45.333 C 196.233 45.333,196.533 45.221,196.533 45.084 C 196.533 44.947,196.863 44.797,197.267 44.751 C 197.670 44.705,197.963 44.547,197.918 44.400 C 197.810 44.050,198.767 43.793,200.300 43.760 C 202.012 43.723,203.200 43.999,203.200 44.433 C 203.200 44.647,203.479 44.800,203.867 44.800 C 204.233 44.800,204.533 44.920,204.533 45.067 C 204.533 45.213,204.833 45.333,205.200 45.333 C 205.615 45.333,205.867 45.484,205.867 45.733 C 205.867 45.982,206.119 46.133,206.533 46.133 C 206.900 46.133,207.200 46.251,207.200 46.395 C 207.200 46.539,207.500 46.732,207.867 46.824 C 208.233 46.916,208.533 47.098,208.533 47.229 C 208.533 47.360,208.913 47.467,209.378 47.467 C 209.842 47.467,210.139 47.550,210.037 47.652 C 209.810 47.879,211.638 48.800,212.314 48.800 C 212.581 48.800,212.800 48.980,212.800 49.200 C 212.800 49.449,213.052 49.600,213.467 49.600 C 213.833 49.600,214.133 49.720,214.133 49.867 C 214.133 50.013,214.433 50.133,214.800 50.133 C 215.215 50.133,215.467 50.284,215.467 50.533 C 215.467 50.782,215.719 50.933,216.133 50.933 C 216.500 50.933,216.800 51.051,216.800 51.195 C 216.800 51.339,217.100 51.532,217.467 51.624 C 217.833 51.716,218.133 51.898,218.133 52.029 C 218.133 52.160,218.513 52.267,218.978 52.267 C 219.442 52.267,219.739 52.350,219.637 52.452 C 219.410 52.679,221.238 53.600,221.914 53.600 C 222.181 53.600,222.370 53.750,222.333 53.933 C 222.296 54.121,222.588 54.304,223.000 54.351 C 223.403 54.397,223.733 54.547,223.733 54.684 C 223.733 54.821,224.033 54.933,224.400 54.933 C 224.815 54.933,225.067 55.084,225.067 55.333 C 225.067 55.582,225.319 55.733,225.733 55.733 C 226.100 55.733,226.400 55.853,226.400 56.000 C 226.400 56.147,226.644 56.267,226.942 56.267 C 227.240 56.267,227.552 56.447,227.637 56.667 C 227.721 56.887,228.078 57.067,228.429 57.067 C 228.780 57.067,229.067 57.164,229.067 57.282 C 229.067 57.555,230.961 58.400,231.572 58.400 C 231.825 58.400,231.956 58.521,231.865 58.670 C 231.772 58.820,232.061 59.012,232.516 59.103 C 232.965 59.193,233.333 59.372,233.333 59.500 C 233.333 59.628,233.633 59.733,234.000 59.733 C 234.415 59.733,234.667 59.884,234.667 60.133 C 234.667 60.382,234.919 60.533,235.333 60.533 C 235.700 60.533,236.000 60.653,236.000 60.800 C 236.000 60.947,236.300 61.067,236.667 61.067 C 237.081 61.067,237.333 61.218,237.333 61.467 C 237.333 61.716,237.585 61.867,238.000 61.867 C 238.367 61.867,238.667 61.964,238.667 62.082 C 238.667 62.355,240.561 63.200,241.172 63.200 C 241.425 63.200,241.556 63.321,241.465 63.470 C 241.372 63.620,241.661 63.812,242.116 63.903 C 242.565 63.993,242.933 64.172,242.933 64.300 C 242.933 64.428,243.233 64.533,243.600 64.533 C 244.015 64.533,244.267 64.684,244.267 64.933 C 244.267 65.182,244.519 65.333,244.933 65.333 C 245.300 65.333,245.600 65.453,245.600 65.600 C 245.600 65.747,245.900 65.867,246.267 65.867 C 246.681 65.867,246.933 66.018,246.933 66.267 C 246.933 66.516,247.185 66.667,247.600 66.667 C 247.967 66.667,248.267 66.784,248.267 66.928 C 248.267 67.072,248.567 67.265,248.933 67.357 C 249.300 67.449,249.600 67.631,249.600 67.762 C 249.600 67.893,249.980 68.000,250.444 68.000 C 250.909 68.000,251.205 68.084,251.103 68.186 C 250.877 68.412,252.705 69.333,253.381 69.333 C 253.648 69.333,253.867 69.513,253.867 69.733 C 253.867 69.982,254.119 70.133,254.533 70.133 C 254.900 70.133,255.200 70.253,255.200 70.400 C 255.200 70.547,255.500 70.667,255.867 70.667 C 256.281 70.667,256.533 70.818,256.533 71.067 C 256.533 71.316,256.785 71.467,257.200 71.467 C 257.567 71.467,257.867 71.584,257.867 71.728 C 257.867 71.872,258.167 72.065,258.533 72.157 C 258.900 72.249,259.200 72.431,259.200 72.562 C 259.200 72.693,259.580 72.800,260.044 72.800 C 260.509 72.800,260.805 72.884,260.703 72.986 C 260.474 73.215,262.309 74.133,262.997 74.133 C 263.272 74.133,263.423 74.255,263.331 74.403 C 263.239 74.553,263.528 74.746,263.982 74.836 C 264.432 74.926,264.800 75.105,264.800 75.233 C 264.800 75.362,265.100 75.467,265.467 75.467 C 265.881 75.467,266.133 75.618,266.133 75.867 C 266.133 76.116,266.385 76.267,266.800 76.267 C 267.167 76.267,267.467 76.387,267.467 76.533 C 267.467 76.710,286.092 76.800,322.810 76.800 L 378.153 76.800 378.074 56.733 C 377.996 37.039,377.984 36.639,377.430 35.187 C 375.325 29.669,372.185 26.530,366.679 24.439 C 365.240 23.892,364.693 23.873,346.533 23.737 C 320.611 23.542,53.634 23.544,42.667 23.739 M398.667 23.688 C 398.667 23.810,398.962 24.620,399.322 25.488 L 399.977 27.067 399.989 25.267 C 400.000 23.521,399.980 23.467,399.333 23.467 C 398.967 23.467,398.667 23.566,398.667 23.688 " stroke="none" fill="#e47474" fill-rule="evenodd"></path><path id="path5" d="M20.800 109.333 L 20.800 136.000 33.317 136.000 L 45.834 136.000 45.917 128.974 L 46.000 121.948 47.235 120.748 C 47.914 120.088,48.664 119.473,48.902 119.382 C 49.139 119.291,49.333 119.093,49.333 118.942 C 49.333 118.790,49.517 118.667,49.742 118.667 C 49.966 118.667,50.219 118.487,50.304 118.267 C 50.388 118.047,50.684 117.867,50.962 117.867 C 51.240 117.867,51.467 117.755,51.467 117.619 C 51.467 117.482,51.737 117.329,52.067 117.279 C 52.397 117.229,52.637 117.040,52.600 116.860 C 52.559 116.660,52.843 116.533,53.333 116.533 C 53.773 116.533,54.133 116.421,54.133 116.284 C 54.133 116.147,54.463 115.997,54.867 115.951 C 55.279 115.904,55.571 115.721,55.533 115.533 C 55.497 115.350,55.666 115.200,55.910 115.200 C 56.510 115.200,58.400 114.351,58.400 114.082 C 58.400 113.964,58.687 113.867,59.038 113.867 C 59.389 113.867,59.745 113.687,59.830 113.467 C 59.914 113.247,60.227 113.067,60.525 113.067 C 60.823 113.067,61.067 112.947,61.067 112.800 C 61.067 112.653,61.367 112.533,61.733 112.533 C 62.148 112.533,62.400 112.382,62.400 112.133 C 62.400 111.884,62.652 111.733,63.067 111.733 C 63.433 111.733,63.733 111.621,63.733 111.484 C 63.733 111.347,64.063 111.197,64.467 111.151 C 64.879 111.104,65.171 110.921,65.133 110.733 C 65.092 110.526,65.369 110.400,65.867 110.400 C 66.307 110.400,66.667 110.280,66.667 110.133 C 66.667 109.987,66.910 109.867,67.208 109.867 C 67.506 109.867,67.819 109.687,67.904 109.467 C 67.988 109.247,68.344 109.067,68.695 109.067 C 69.046 109.067,69.333 108.960,69.333 108.829 C 69.333 108.698,69.633 108.516,70.000 108.424 C 70.367 108.332,70.667 108.139,70.667 107.995 C 70.667 107.851,70.967 107.733,71.333 107.733 C 71.748 107.733,72.000 107.582,72.000 107.333 C 72.000 107.084,72.252 106.933,72.667 106.933 C 73.033 106.933,73.333 106.821,73.333 106.684 C 73.333 106.547,73.663 106.397,74.067 106.351 C 74.479 106.304,74.771 106.121,74.733 105.933 C 74.692 105.726,74.969 105.600,75.467 105.600 C 75.907 105.600,76.267 105.480,76.267 105.333 C 76.267 105.187,76.510 105.067,76.808 105.067 C 77.106 105.067,77.419 104.887,77.504 104.667 C 77.588 104.447,77.944 104.267,78.295 104.267 C 78.646 104.267,78.933 104.160,78.933 104.029 C 78.933 103.898,79.233 103.716,79.600 103.624 C 79.967 103.532,80.267 103.339,80.267 103.195 C 80.267 103.051,80.567 102.933,80.933 102.933 C 81.348 102.933,81.600 102.782,81.600 102.533 C 81.600 102.284,81.852 102.133,82.267 102.133 C 82.633 102.133,82.933 102.021,82.933 101.884 C 82.933 101.747,83.263 101.597,83.667 101.551 C 84.079 101.504,84.371 101.321,84.333 101.133 C 84.292 100.926,84.569 100.800,85.067 100.800 C 85.507 100.800,85.867 100.688,85.867 100.552 C 85.867 100.415,86.137 100.263,86.467 100.212 C 86.797 100.162,87.037 99.974,87.000 99.794 C 86.959 99.593,87.243 99.467,87.733 99.467 C 88.173 99.467,88.533 99.360,88.533 99.229 C 88.533 99.098,88.833 98.916,89.200 98.824 C 89.567 98.732,89.867 98.539,89.867 98.395 C 89.867 98.251,90.167 98.133,90.533 98.133 C 90.948 98.133,91.200 97.982,91.200 97.733 C 91.200 97.484,91.452 97.333,91.867 97.333 C 92.233 97.333,92.533 97.213,92.533 97.067 C 92.533 96.920,92.833 96.800,93.200 96.800 C 93.615 96.800,93.867 96.649,93.867 96.400 C 93.867 96.177,94.104 96.000,94.404 96.000 C 94.699 96.000,95.149 95.889,95.404 95.753 C 95.658 95.617,96.084 95.438,96.350 95.355 C 96.616 95.272,96.759 95.083,96.668 94.935 C 96.570 94.777,96.838 94.667,97.318 94.667 C 97.766 94.667,98.133 94.560,98.133 94.429 C 98.133 94.298,98.433 94.116,98.800 94.024 C 99.167 93.932,99.467 93.739,99.467 93.595 C 99.467 93.451,99.767 93.333,100.133 93.333 C 100.500 93.333,100.800 93.226,100.800 93.096 C 100.800 92.965,101.100 92.783,101.467 92.690 C 101.833 92.598,102.133 92.405,102.133 92.262 C 102.133 92.118,102.433 92.000,102.800 92.000 C 103.215 92.000,103.467 91.849,103.467 91.600 C 103.467 91.351,103.719 91.200,104.133 91.200 C 104.500 91.200,104.800 91.088,104.800 90.951 C 104.800 90.814,105.130 90.664,105.533 90.618 C 105.946 90.570,106.237 90.387,106.200 90.200 C 106.159 89.993,106.436 89.867,106.933 89.867 C 107.373 89.867,107.733 89.760,107.733 89.629 C 107.733 89.498,108.033 89.316,108.400 89.224 C 108.767 89.132,109.067 88.939,109.067 88.795 C 109.067 88.651,109.367 88.533,109.733 88.533 C 110.100 88.533,110.400 88.426,110.400 88.296 C 110.400 88.165,110.700 87.983,111.067 87.890 C 111.433 87.798,111.733 87.605,111.733 87.462 C 111.733 87.318,112.033 87.200,112.400 87.200 C 112.815 87.200,113.067 87.049,113.067 86.800 C 113.067 86.551,113.319 86.400,113.733 86.400 C 114.100 86.400,114.400 86.288,114.400 86.151 C 114.400 86.014,114.730 85.864,115.133 85.818 C 115.546 85.770,115.837 85.587,115.800 85.400 C 115.759 85.193,116.036 85.067,116.533 85.067 C 116.973 85.067,117.333 84.955,117.333 84.819 C 117.333 84.682,117.603 84.529,117.933 84.479 C 118.263 84.429,118.503 84.240,118.467 84.060 C 118.426 83.860,118.710 83.733,119.200 83.733 C 119.640 83.733,120.000 83.636,120.000 83.518 C 120.000 83.400,120.330 83.173,120.733 83.013 C 121.266 82.803,107.663 82.716,71.133 82.695 L 20.800 82.667 20.800 109.333 M280.648 83.211 C 281.224 83.498,281.921 83.733,282.197 83.733 C 282.472 83.733,282.623 83.855,282.531 84.003 C 282.439 84.153,282.728 84.346,283.182 84.436 C 283.632 84.526,284.000 84.705,284.000 84.833 C 284.000 84.962,284.300 85.067,284.667 85.067 C 285.081 85.067,285.333 85.218,285.333 85.467 C 285.333 85.716,285.585 85.867,286.000 85.867 C 286.367 85.867,286.667 85.987,286.667 86.133 C 286.667 86.280,286.967 86.400,287.333 86.400 C 287.748 86.400,288.000 86.551,288.000 86.800 C 288.000 87.049,288.252 87.200,288.667 87.200 C 289.033 87.200,289.333 87.318,289.333 87.462 C 289.333 87.605,289.633 87.798,290.000 87.890 C 290.367 87.983,290.667 88.165,290.667 88.296 C 290.667 88.426,291.047 88.533,291.511 88.533 C 291.976 88.533,292.272 88.617,292.170 88.719 C 291.943 88.946,293.772 89.867,294.448 89.867 C 294.715 89.867,294.933 90.047,294.933 90.267 C 294.933 90.516,295.185 90.667,295.600 90.667 C 295.967 90.667,296.267 90.787,296.267 90.933 C 296.267 91.080,296.567 91.200,296.933 91.200 C 297.348 91.200,297.600 91.351,297.600 91.600 C 297.600 91.849,297.852 92.000,298.267 92.000 C 298.633 92.000,298.933 92.118,298.933 92.262 C 298.933 92.405,299.233 92.598,299.600 92.690 C 299.967 92.783,300.267 92.965,300.267 93.096 C 300.267 93.226,300.567 93.333,300.933 93.333 C 301.300 93.333,301.600 93.430,301.600 93.549 C 301.600 93.818,303.490 94.667,304.090 94.667 C 304.334 94.667,304.503 94.817,304.467 95.000 C 304.429 95.187,304.721 95.370,305.133 95.418 C 305.537 95.464,305.867 95.614,305.867 95.751 C 305.867 95.888,306.167 96.000,306.533 96.000 C 306.948 96.000,307.200 96.151,307.200 96.400 C 307.200 96.649,307.452 96.800,307.867 96.800 C 308.233 96.800,308.533 96.920,308.533 97.067 C 308.533 97.213,308.833 97.333,309.200 97.333 C 309.615 97.333,309.867 97.484,309.867 97.733 C 309.867 97.982,310.119 98.133,310.533 98.133 C 310.900 98.133,311.200 98.230,311.200 98.349 C 311.200 98.621,313.094 99.467,313.705 99.467 C 313.958 99.467,314.090 99.588,313.998 99.736 C 313.905 99.886,314.195 100.079,314.649 100.170 C 315.099 100.260,315.467 100.438,315.467 100.567 C 315.467 100.695,315.767 100.800,316.133 100.800 C 316.548 100.800,316.800 100.951,316.800 101.200 C 316.800 101.449,317.052 101.600,317.467 101.600 C 317.833 101.600,318.133 101.720,318.133 101.867 C 318.133 102.013,318.433 102.133,318.800 102.133 C 319.215 102.133,319.467 102.284,319.467 102.533 C 319.467 102.782,319.719 102.933,320.133 102.933 C 320.500 102.933,320.800 103.051,320.800 103.195 C 320.800 103.339,321.100 103.532,321.467 103.624 C 321.833 103.716,322.133 103.898,322.133 104.029 C 322.133 104.160,322.513 104.267,322.978 104.267 C 323.442 104.267,323.739 104.350,323.637 104.452 C 323.410 104.679,325.238 105.600,325.914 105.600 C 326.181 105.600,326.400 105.780,326.400 106.000 C 326.400 106.249,326.652 106.400,327.067 106.400 C 327.433 106.400,327.733 106.520,327.733 106.667 C 327.733 106.813,328.033 106.933,328.400 106.933 C 328.815 106.933,329.067 107.084,329.067 107.333 C 329.067 107.582,329.319 107.733,329.733 107.733 C 330.100 107.733,330.400 107.851,330.400 107.995 C 330.400 108.139,330.700 108.332,331.067 108.424 C 331.433 108.516,331.733 108.698,331.733 108.829 C 331.733 108.960,332.113 109.067,332.578 109.067 C 333.042 109.067,333.339 109.150,333.237 109.252 C 333.010 109.479,334.838 110.400,335.514 110.400 C 335.781 110.400,335.970 110.550,335.933 110.733 C 335.896 110.921,336.188 111.104,336.600 111.151 C 337.003 111.197,337.333 111.347,337.333 111.484 C 337.333 111.621,337.633 111.733,338.000 111.733 C 338.415 111.733,338.667 111.884,338.667 112.133 C 338.667 112.382,338.919 112.533,339.333 112.533 C 339.700 112.533,340.000 112.653,340.000 112.800 C 340.000 112.947,340.244 113.067,340.542 113.067 C 340.840 113.067,341.152 113.247,341.237 113.467 C 341.321 113.687,341.678 113.867,342.029 113.867 C 342.380 113.867,342.667 113.964,342.667 114.082 C 342.667 114.344,344.550 115.200,345.128 115.200 C 345.356 115.200,345.612 115.380,345.696 115.600 C 345.781 115.820,346.094 116.000,346.392 116.000 C 346.690 116.000,346.933 116.120,346.933 116.267 C 346.933 116.413,347.293 116.533,347.733 116.533 C 348.224 116.533,348.508 116.660,348.467 116.860 C 348.430 117.040,348.670 117.229,349.000 117.279 C 349.330 117.329,349.600 117.482,349.600 117.619 C 349.600 117.755,349.827 117.867,350.105 117.867 C 350.382 117.867,350.679 118.047,350.763 118.267 C 350.848 118.487,351.160 118.667,351.458 118.667 C 351.762 118.667,352.000 118.842,352.000 119.067 C 352.000 119.287,352.115 119.467,352.256 119.467 C 352.397 119.467,353.087 120.025,353.790 120.707 L 355.067 121.948 355.149 128.974 L 355.232 136.000 366.683 136.000 L 378.133 136.000 378.133 109.333 L 378.133 82.667 328.867 82.677 C 279.752 82.688,279.603 82.690,280.648 83.211 " stroke="none" fill="#e6b273" fill-rule="evenodd"></path></g></svg>